<?xml version="1.0" encoding="UTF-8" standalone="no"?>
<!DOCTYPE svg PUBLIC "-//W3C//DTD SVG 1.1//EN"
 "http://www.w3.org/Graphics/SVG/1.1/DTD/svg11.dtd">
<!-- Generated by graphviz version 3.0.0 (20220226.1711)
 -->
<!-- Title: dependencies Pages: 1 -->
<svg width="3198pt" height="247pt"
 viewBox="0.00 0.00 3198.00 246.80" xmlns="http://www.w3.org/2000/svg" xmlns:xlink="http://www.w3.org/1999/xlink">
<g id="graph0" class="graph" transform="scale(1 1) rotate(0) translate(4 242.8)">
<title>dependencies</title>
<polygon fill="white" stroke="transparent" points="-4,4 -4,-242.8 3194,-242.8 3194,4 -4,4"/>
<text text-anchor="middle" x="1595" y="-8.2" font-family="sans-serif" font-size="14.00">dependencies</text>
<g id="clust1" class="cluster">
<title>cluster_AppModule</title>
<polygon fill="none" stroke="black" stroke-dasharray="1,5" points="8,-32.8 8,-230.8 3182,-230.8 3182,-32.8 8,-32.8"/>
</g>
<g id="clust25" class="cluster">
<title>cluster_AppModule_imports</title>
<polygon fill="none" stroke="black" points="3068,-40.8 3068,-92.8 3174,-92.8 3174,-40.8 3068,-40.8"/>
</g>
<g id="clust27" class="cluster">
<title>cluster_AppModule_bootstrap</title>
<polygon fill="none" stroke="black" points="1490,-170.8 1490,-222.8 1614,-222.8 1614,-170.8 1490,-170.8"/>
</g>
<g id="clust2" class="cluster">
<title>cluster_AppModule_declarations</title>
<polygon fill="none" stroke="black" points="16,-40.8 16,-92.8 3060,-92.8 3060,-40.8 16,-40.8"/>
</g>
<!-- AboutComponent -->
<g id="node1" class="node">
<title>AboutComponent</title>
<polygon fill="#ffffb3" stroke="black" points="3052.33,-84.8 2935.67,-84.8 2935.67,-48.8 3052.33,-48.8 3052.33,-84.8"/>
<text text-anchor="middle" x="2994" y="-62.6" font-family="Times,serif" font-size="14.00">AboutComponent</text>
</g>
<!-- AppModule -->
<g id="node23" class="node">
<title>AppModule</title>
<polygon fill="#8dd3c7" stroke="black" points="1593.66,-149.8 1590.66,-153.8 1569.66,-153.8 1566.66,-149.8 1510.34,-149.8 1510.34,-113.8 1593.66,-113.8 1593.66,-149.8"/>
<text text-anchor="middle" x="1552" y="-127.6" font-family="Times,serif" font-size="14.00">AppModule</text>
</g>
<!-- AboutComponent&#45;&gt;AppModule -->
<g id="edge1" class="edge">
<title>AboutComponent&#45;&gt;AppModule</title>
<path fill="none" stroke="black" d="M2994,-85.05C2994,-107.82 2994,-143.8 2994,-143.8 2994,-143.8 1603.99,-143.8 1603.99,-143.8"/>
<polygon fill="black" stroke="black" points="1603.99,-140.3 1593.99,-143.8 1603.99,-147.3 1603.99,-140.3"/>
</g>
<!-- AppComponent -->
<g id="node2" class="node">
<title>AppComponent</title>
<polygon fill="#ffffb3" stroke="black" points="2917.94,-84.8 2812.06,-84.8 2812.06,-48.8 2917.94,-48.8 2917.94,-84.8"/>
<text text-anchor="middle" x="2865" y="-62.6" font-family="Times,serif" font-size="14.00">AppComponent</text>
</g>
<!-- AppComponent&#45;&gt;AppModule -->
<g id="edge2" class="edge">
<title>AppComponent&#45;&gt;AppModule</title>
<path fill="none" stroke="black" d="M2865,-85.09C2865,-107.01 2865,-140.8 2865,-140.8 2865,-140.8 1603.83,-140.8 1603.83,-140.8"/>
<polygon fill="black" stroke="black" points="1603.83,-137.3 1593.83,-140.8 1603.83,-144.3 1603.83,-137.3"/>
</g>
<!-- BetterNamesPipe -->
<g id="node3" class="node">
<title>BetterNamesPipe</title>
<polygon fill="#ffffb3" stroke="black" points="2793.97,-84.8 2680.03,-84.8 2680.03,-48.8 2793.97,-48.8 2793.97,-84.8"/>
<text text-anchor="middle" x="2737" y="-62.6" font-family="Times,serif" font-size="14.00">BetterNamesPipe</text>
</g>
<!-- BetterNamesPipe&#45;&gt;AppModule -->
<g id="edge3" class="edge">
<title>BetterNamesPipe&#45;&gt;AppModule</title>
<path fill="none" stroke="black" d="M2737,-84.83C2737,-105.57 2737,-136.8 2737,-136.8 2737,-136.8 1603.83,-136.8 1603.83,-136.8"/>
<polygon fill="black" stroke="black" points="1603.83,-133.3 1593.83,-136.8 1603.83,-140.3 1603.83,-133.3"/>
</g>
<!-- CanvasComponent -->
<g id="node4" class="node">
<title>CanvasComponent</title>
<polygon fill="#ffffb3" stroke="black" points="2662.05,-84.8 2539.95,-84.8 2539.95,-48.8 2662.05,-48.8 2662.05,-84.8"/>
<text text-anchor="middle" x="2601" y="-62.6" font-family="Times,serif" font-size="14.00">CanvasComponent</text>
</g>
<!-- CanvasComponent&#45;&gt;AppModule -->
<g id="edge4" class="edge">
<title>CanvasComponent&#45;&gt;AppModule</title>
<path fill="none" stroke="black" d="M2601,-85.11C2601,-104.95 2601,-133.8 2601,-133.8 2601,-133.8 1603.77,-133.8 1603.77,-133.8"/>
<polygon fill="black" stroke="black" points="1603.77,-130.3 1593.77,-133.8 1603.77,-137.3 1603.77,-130.3"/>
</g>
<!-- CarouselComponent -->
<g id="node5" class="node">
<title>CarouselComponent</title>
<polygon fill="#ffffb3" stroke="black" points="2521.6,-84.8 2390.4,-84.8 2390.4,-48.8 2521.6,-48.8 2521.6,-84.8"/>
<text text-anchor="middle" x="2456" y="-62.6" font-family="Times,serif" font-size="14.00">CarouselComponent</text>
</g>
<!-- CarouselComponent&#45;&gt;AppModule -->
<g id="edge5" class="edge">
<title>CarouselComponent&#45;&gt;AppModule</title>
<path fill="none" stroke="black" d="M2456,-84.97C2456,-103.89 2456,-130.8 2456,-130.8 2456,-130.8 1603.79,-130.8 1603.79,-130.8"/>
<polygon fill="black" stroke="black" points="1603.79,-127.3 1593.79,-130.8 1603.79,-134.3 1603.79,-127.3"/>
</g>
<!-- ControllerComponent -->
<g id="node6" class="node">
<title>ControllerComponent</title>
<polygon fill="#ffffb3" stroke="black" points="2372.38,-84.8 2233.62,-84.8 2233.62,-48.8 2372.38,-48.8 2372.38,-84.8"/>
<text text-anchor="middle" x="2303" y="-62.6" font-family="Times,serif" font-size="14.00">ControllerComponent</text>
</g>
<!-- ControllerComponent&#45;&gt;AppModule -->
<g id="edge6" class="edge">
<title>ControllerComponent&#45;&gt;AppModule</title>
<path fill="none" stroke="black" d="M2303,-85.1C2303,-103.07 2303,-127.8 2303,-127.8 2303,-127.8 1603.72,-127.8 1603.72,-127.8"/>
<polygon fill="black" stroke="black" points="1603.72,-124.3 1593.72,-127.8 1603.72,-131.3 1603.72,-124.3"/>
</g>
<!-- EpistackComponent -->
<g id="node7" class="node">
<title>EpistackComponent</title>
<polygon fill="#ffffb3" stroke="black" points="2215.54,-84.8 2086.46,-84.8 2086.46,-48.8 2215.54,-48.8 2215.54,-84.8"/>
<text text-anchor="middle" x="2151" y="-62.6" font-family="Times,serif" font-size="14.00">EpistackComponent</text>
</g>
<!-- EpistackComponent&#45;&gt;AppModule -->
<g id="edge7" class="edge">
<title>EpistackComponent&#45;&gt;AppModule</title>
<path fill="none" stroke="black" d="M2151,-84.84C2151,-101.53 2151,-123.8 2151,-123.8 2151,-123.8 1604.12,-123.8 1604.12,-123.8"/>
<polygon fill="black" stroke="black" points="1604.12,-120.3 1594.12,-123.8 1604.12,-127.3 1604.12,-120.3"/>
</g>
<!-- ExperimentComponent -->
<g id="node8" class="node">
<title>ExperimentComponent</title>
<polygon fill="#ffffb3" stroke="black" points="2068.14,-84.8 1921.86,-84.8 1921.86,-48.8 2068.14,-48.8 2068.14,-84.8"/>
<text text-anchor="middle" x="1995" y="-62.6" font-family="Times,serif" font-size="14.00">ExperimentComponent</text>
</g>
<!-- ExperimentComponent&#45;&gt;AppModule -->
<g id="edge8" class="edge">
<title>ExperimentComponent&#45;&gt;AppModule</title>
<path fill="none" stroke="black" d="M1995,-85.08C1995,-100.75 1995,-120.8 1995,-120.8 1995,-120.8 1603.68,-120.8 1603.68,-120.8"/>
<polygon fill="black" stroke="black" points="1603.68,-117.3 1593.68,-120.8 1603.68,-124.3 1603.68,-117.3"/>
</g>
<!-- ExperimentsListComponent -->
<g id="node9" class="node">
<title>ExperimentsListComponent</title>
<polygon fill="#ffffb3" stroke="black" points="1903.87,-84.8 1730.13,-84.8 1730.13,-48.8 1903.87,-48.8 1903.87,-84.8"/>
<text text-anchor="middle" x="1817" y="-62.6" font-family="Times,serif" font-size="14.00">ExperimentsListComponent</text>
</g>
<!-- ExperimentsListComponent&#45;&gt;AppModule -->
<g id="edge9" class="edge">
<title>ExperimentsListComponent&#45;&gt;AppModule</title>
<path fill="none" stroke="black" d="M1817,-84.92C1817,-99.58 1817,-117.8 1817,-117.8 1817,-117.8 1603.7,-117.8 1603.7,-117.8"/>
<polygon fill="black" stroke="black" points="1603.7,-114.3 1593.7,-117.8 1603.7,-121.3 1603.7,-114.3"/>
</g>
<!-- FilterComponent -->
<g id="node10" class="node">
<title>FilterComponent</title>
<polygon fill="#ffffb3" stroke="black" points="1711.66,-84.8 1600.34,-84.8 1600.34,-48.8 1711.66,-48.8 1711.66,-84.8"/>
<text text-anchor="middle" x="1656" y="-62.6" font-family="Times,serif" font-size="14.00">FilterComponent</text>
</g>
<!-- FilterComponent&#45;&gt;AppModule -->
<g id="edge10" class="edge">
<title>FilterComponent&#45;&gt;AppModule</title>
<path fill="none" stroke="black" d="M1600.31,-66.8C1593.12,-66.8 1588.19,-66.8 1588.19,-66.8 1588.19,-66.8 1588.19,-103.69 1588.19,-103.69"/>
<polygon fill="black" stroke="black" points="1584.69,-103.69 1588.19,-113.69 1591.69,-103.69 1584.69,-103.69"/>
</g>
<!-- GetPipe -->
<g id="node11" class="node">
<title>GetPipe</title>
<polygon fill="#ffffb3" stroke="black" points="1582.6,-84.8 1521.4,-84.8 1521.4,-48.8 1582.6,-48.8 1582.6,-84.8"/>
<text text-anchor="middle" x="1552" y="-62.6" font-family="Times,serif" font-size="14.00">GetPipe</text>
</g>
<!-- GetPipe&#45;&gt;AppModule -->
<g id="edge11" class="edge">
<title>GetPipe&#45;&gt;AppModule</title>
<path fill="none" stroke="black" d="M1552,-84.91C1552,-84.91 1552,-103.79 1552,-103.79"/>
<polygon fill="black" stroke="black" points="1548.5,-103.79 1552,-113.79 1555.5,-103.79 1548.5,-103.79"/>
</g>
<!-- HeaderComponent -->
<g id="node12" class="node">
<title>HeaderComponent</title>
<polygon fill="#ffffb3" stroke="black" points="1503.75,-84.8 1382.25,-84.8 1382.25,-48.8 1503.75,-48.8 1503.75,-84.8"/>
<text text-anchor="middle" x="1443" y="-62.6" font-family="Times,serif" font-size="14.00">HeaderComponent</text>
</g>
<!-- HeaderComponent&#45;&gt;AppModule -->
<g id="edge12" class="edge">
<title>HeaderComponent&#45;&gt;AppModule</title>
<path fill="none" stroke="black" d="M1503.79,-66.8C1510.97,-66.8 1515.81,-66.8 1515.81,-66.8 1515.81,-66.8 1515.81,-103.69 1515.81,-103.69"/>
<polygon fill="black" stroke="black" points="1512.31,-103.69 1515.81,-113.69 1519.31,-103.69 1512.31,-103.69"/>
</g>
<!-- HeatmapComponent -->
<g id="node13" class="node">
<title>HeatmapComponent</title>
<polygon fill="#ffffb3" stroke="black" points="1363.86,-84.8 1232.14,-84.8 1232.14,-48.8 1363.86,-48.8 1363.86,-84.8"/>
<text text-anchor="middle" x="1298" y="-62.6" font-family="Times,serif" font-size="14.00">HeatmapComponent</text>
</g>
<!-- HeatmapComponent&#45;&gt;AppModule -->
<g id="edge13" class="edge">
<title>HeatmapComponent&#45;&gt;AppModule</title>
<path fill="none" stroke="black" d="M1298,-84.92C1298,-99.58 1298,-117.8 1298,-117.8 1298,-117.8 1500.06,-117.8 1500.06,-117.8"/>
<polygon fill="black" stroke="black" points="1500.06,-121.3 1510.06,-117.8 1500.06,-114.3 1500.06,-121.3"/>
</g>
<!-- HighlightComponent -->
<g id="node14" class="node">
<title>HighlightComponent</title>
<polygon fill="#ffffb3" stroke="black" points="1214.5,-84.8 1079.5,-84.8 1079.5,-48.8 1214.5,-48.8 1214.5,-84.8"/>
<text text-anchor="middle" x="1147" y="-62.6" font-family="Times,serif" font-size="14.00">HighlightComponent</text>
</g>
<!-- HighlightComponent&#45;&gt;AppModule -->
<g id="edge14" class="edge">
<title>HighlightComponent&#45;&gt;AppModule</title>
<path fill="none" stroke="black" d="M1147,-85.08C1147,-100.75 1147,-120.8 1147,-120.8 1147,-120.8 1500.18,-120.8 1500.18,-120.8"/>
<polygon fill="black" stroke="black" points="1500.18,-124.3 1510.18,-120.8 1500.18,-117.3 1500.18,-124.3"/>
</g>
<!-- LegendComponent -->
<g id="node15" class="node">
<title>LegendComponent</title>
<polygon fill="#ffffb3" stroke="black" points="1061.81,-84.8 938.19,-84.8 938.19,-48.8 1061.81,-48.8 1061.81,-84.8"/>
<text text-anchor="middle" x="1000" y="-62.6" font-family="Times,serif" font-size="14.00">LegendComponent</text>
</g>
<!-- LegendComponent&#45;&gt;AppModule -->
<g id="edge15" class="edge">
<title>LegendComponent&#45;&gt;AppModule</title>
<path fill="none" stroke="black" d="M1000,-84.84C1000,-101.53 1000,-123.8 1000,-123.8 1000,-123.8 1500.06,-123.8 1500.06,-123.8"/>
<polygon fill="black" stroke="black" points="1500.06,-127.3 1510.06,-123.8 1500.06,-120.3 1500.06,-127.3"/>
</g>
<!-- MainComponent -->
<g id="node16" class="node">
<title>MainComponent</title>
<polygon fill="#ffffb3" stroke="black" points="920.38,-84.8 809.62,-84.8 809.62,-48.8 920.38,-48.8 920.38,-84.8"/>
<text text-anchor="middle" x="865" y="-62.6" font-family="Times,serif" font-size="14.00">MainComponent</text>
</g>
<!-- MainComponent&#45;&gt;AppModule -->
<g id="edge16" class="edge">
<title>MainComponent&#45;&gt;AppModule</title>
<path fill="none" stroke="black" d="M865,-85.1C865,-103.07 865,-127.8 865,-127.8 865,-127.8 1500.32,-127.8 1500.32,-127.8"/>
<polygon fill="black" stroke="black" points="1500.32,-131.3 1510.32,-127.8 1500.32,-124.3 1500.32,-131.3"/>
</g>
<!-- MenuComponent -->
<g id="node17" class="node">
<title>MenuComponent</title>
<polygon fill="#ffffb3" stroke="black" points="791.99,-84.8 678.01,-84.8 678.01,-48.8 791.99,-48.8 791.99,-84.8"/>
<text text-anchor="middle" x="735" y="-62.6" font-family="Times,serif" font-size="14.00">MenuComponent</text>
</g>
<!-- MenuComponent&#45;&gt;AppModule -->
<g id="edge17" class="edge">
<title>MenuComponent&#45;&gt;AppModule</title>
<path fill="none" stroke="black" d="M735,-84.97C735,-103.89 735,-130.8 735,-130.8 735,-130.8 1500.08,-130.8 1500.08,-130.8"/>
<polygon fill="black" stroke="black" points="1500.08,-134.3 1510.08,-130.8 1500.08,-127.3 1500.08,-134.3"/>
</g>
<!-- MetadataTableComponent -->
<g id="node18" class="node">
<title>MetadataTableComponent</title>
<polygon fill="#ffffb3" stroke="black" points="659.78,-84.8 494.22,-84.8 494.22,-48.8 659.78,-48.8 659.78,-84.8"/>
<text text-anchor="middle" x="577" y="-62.6" font-family="Times,serif" font-size="14.00">MetadataTableComponent</text>
</g>
<!-- MetadataTableComponent&#45;&gt;AppModule -->
<g id="edge18" class="edge">
<title>MetadataTableComponent&#45;&gt;AppModule</title>
<path fill="none" stroke="black" d="M577,-85.11C577,-104.95 577,-133.8 577,-133.8 577,-133.8 1500.11,-133.8 1500.11,-133.8"/>
<polygon fill="black" stroke="black" points="1500.11,-137.3 1510.11,-133.8 1500.11,-130.3 1500.11,-137.3"/>
</g>
<!-- PlotlyComponent -->
<g id="node19" class="node">
<title>PlotlyComponent</title>
<polygon fill="#ffffb3" stroke="black" points="476.29,-84.8 361.71,-84.8 361.71,-48.8 476.29,-48.8 476.29,-84.8"/>
<text text-anchor="middle" x="419" y="-62.6" font-family="Times,serif" font-size="14.00">PlotlyComponent</text>
</g>
<!-- PlotlyComponent&#45;&gt;AppModule -->
<g id="edge19" class="edge">
<title>PlotlyComponent&#45;&gt;AppModule</title>
<path fill="none" stroke="black" d="M419,-84.83C419,-105.57 419,-136.8 419,-136.8 419,-136.8 1500.33,-136.8 1500.33,-136.8"/>
<polygon fill="black" stroke="black" points="1500.33,-140.3 1510.33,-136.8 1500.33,-133.3 1500.33,-140.3"/>
</g>
<!-- SafeHTMLPipe -->
<g id="node20" class="node">
<title>SafeHTMLPipe</title>
<polygon fill="#ffffb3" stroke="black" points="343.93,-84.8 238.07,-84.8 238.07,-48.8 343.93,-48.8 343.93,-84.8"/>
<text text-anchor="middle" x="291" y="-62.6" font-family="Times,serif" font-size="14.00">SafeHTMLPipe</text>
</g>
<!-- SafeHTMLPipe&#45;&gt;AppModule -->
<g id="edge20" class="edge">
<title>SafeHTMLPipe&#45;&gt;AppModule</title>
<path fill="none" stroke="black" d="M291,-85.09C291,-107.01 291,-140.8 291,-140.8 291,-140.8 1500.04,-140.8 1500.04,-140.8"/>
<polygon fill="black" stroke="black" points="1500.04,-144.3 1510.04,-140.8 1500.04,-137.3 1500.04,-144.3"/>
</g>
<!-- SafePipe -->
<g id="node21" class="node">
<title>SafePipe</title>
<polygon fill="#ffffb3" stroke="black" points="219.77,-84.8 154.23,-84.8 154.23,-48.8 219.77,-48.8 219.77,-84.8"/>
<text text-anchor="middle" x="187" y="-62.6" font-family="Times,serif" font-size="14.00">SafePipe</text>
</g>
<!-- SafePipe&#45;&gt;AppModule -->
<g id="edge21" class="edge">
<title>SafePipe&#45;&gt;AppModule</title>
<path fill="none" stroke="black" d="M187,-85.05C187,-107.82 187,-143.8 187,-143.8 187,-143.8 1500.03,-143.8 1500.03,-143.8"/>
<polygon fill="black" stroke="black" points="1500.03,-147.3 1510.03,-143.8 1500.03,-140.3 1500.03,-147.3"/>
</g>
<!-- ViewComponent -->
<g id="node22" class="node">
<title>ViewComponent</title>
<polygon fill="#ffffb3" stroke="black" points="135.66,-84.8 24.34,-84.8 24.34,-48.8 135.66,-48.8 135.66,-84.8"/>
<text text-anchor="middle" x="80" y="-62.6" font-family="Times,serif" font-size="14.00">ViewComponent</text>
</g>
<!-- ViewComponent&#45;&gt;AppModule -->
<g id="edge22" class="edge">
<title>ViewComponent&#45;&gt;AppModule</title>
<path fill="none" stroke="black" d="M80,-84.95C80,-108.56 80,-146.8 80,-146.8 80,-146.8 1500.32,-146.8 1500.32,-146.8"/>
<polygon fill="black" stroke="black" points="1500.32,-150.3 1510.32,-146.8 1500.32,-143.3 1500.32,-150.3"/>
</g>
<!-- AppComponent  -->
<g id="node25" class="node">
<title>AppComponent </title>
<polygon fill="#80b1d3" stroke="black" points="1606.44,-214.8 1497.56,-214.8 1497.56,-178.8 1606.44,-178.8 1606.44,-214.8"/>
<text text-anchor="middle" x="1552" y="-192.6" font-family="Times,serif" font-size="14.00">AppComponent </text>
</g>
<!-- AppModule&#45;&gt;AppComponent  -->
<g id="edge24" class="edge">
<title>AppModule&#45;&gt;AppComponent </title>
<path fill="none" stroke="black" stroke-dasharray="1,5" d="M1552,-149.91C1552,-149.91 1552,-168.79 1552,-168.79"/>
<polygon fill="black" stroke="black" points="1548.5,-168.79 1552,-178.79 1555.5,-168.79 1548.5,-168.79"/>
</g>
<!-- IconsModule -->
<g id="node24" class="node">
<title>IconsModule</title>
<polygon fill="#8dd3c7" stroke="black" points="3165.88,-84.8 3162.88,-88.8 3141.88,-88.8 3138.88,-84.8 3076.12,-84.8 3076.12,-48.8 3165.88,-48.8 3165.88,-84.8"/>
<text text-anchor="middle" x="3121" y="-62.6" font-family="Times,serif" font-size="14.00">IconsModule</text>
</g>
<!-- IconsModule&#45;&gt;AppModule -->
<g id="edge23" class="edge">
<title>IconsModule&#45;&gt;AppModule</title>
<path fill="none" stroke="black" d="M3121,-84.95C3121,-108.56 3121,-146.8 3121,-146.8 3121,-146.8 1603.97,-146.8 1603.97,-146.8"/>
<polygon fill="black" stroke="black" points="1603.97,-143.3 1593.97,-146.8 1603.97,-150.3 1603.97,-143.3"/>
</g>
</g>
</svg>
